<svg width="251" height="251" viewBox="0 0 251 251" fill="none" xmlns="http://www.w3.org/2000/svg">
<rect width="251" height="251" fill="#607D8B"/>
<rect x="67.6706" y="165.76" width="87.2843" height="173.838" rx="23" transform="rotate(-110 67.6706 165.76)" fill="url(#paint0_linear_18_174)" stroke="white" stroke-width="8"/>
<mask id="path-3-outside-1_18_174" maskUnits="userSpaceOnUse" x="15" y="73" width="221" height="143" fill="black">
<rect fill="white" x="15" y="73" width="221" height="143"/>
<path fill-rule="evenodd" clip-rule="evenodd" d="M48 189C48 199.493 56.5066 208 67 208H209C219.493 208 228 199.493 228 189V100C228 89.5066 219.493 81 209 81H67C56.5066 81 48 89.5066 48 100V109.134C33.4351 114.282 23 128.172 23 144.5C23 160.828 33.4351 174.718 48 179.866V189ZM48 122.748V166.252C40.4796 161.921 35.4167 153.802 35.4167 144.5C35.4167 135.198 40.4796 127.079 48 122.748Z"/>
</mask>
<path fill-rule="evenodd" clip-rule="evenodd" d="M48 189C48 199.493 56.5066 208 67 208H209C219.493 208 228 199.493 228 189V100C228 89.5066 219.493 81 209 81H67C56.5066 81 48 89.5066 48 100V109.134C33.4351 114.282 23 128.172 23 144.5C23 160.828 33.4351 174.718 48 179.866V189ZM48 122.748V166.252C40.4796 161.921 35.4167 153.802 35.4167 144.5C35.4167 135.198 40.4796 127.079 48 122.748Z" fill="url(#paint1_linear_18_174)"/>
<path d="M48 109.134L50.666 116.677L56 114.791V109.134H48ZM48 179.866H56V174.209L50.666 172.323L48 179.866ZM48 166.252L44.0075 173.184L56 180.091V166.252H48ZM48 122.748H56V108.909L44.0075 115.816L48 122.748ZM67 200C60.9249 200 56 195.075 56 189H40C40 203.912 52.0883 216 67 216V200ZM209 200H67V216H209V200ZM220 189C220 195.075 215.075 200 209 200V216C223.912 216 236 203.912 236 189H220ZM220 100V189H236V100H220ZM209 89C215.075 89 220 93.9249 220 100H236C236 85.0883 223.912 73 209 73V89ZM67 89H209V73H67V89ZM56 100C56 93.9249 60.9249 89 67 89V73C52.0883 73 40 85.0883 40 100H56ZM56 109.134V100H40V109.134H56ZM31 144.5C31 131.668 39.1975 120.73 50.666 116.677L45.334 101.591C27.6727 107.833 15 124.677 15 144.5H31ZM50.666 172.323C39.1975 168.27 31 157.332 31 144.5H15C15 164.323 27.6727 181.167 45.334 187.409L50.666 172.323ZM56 189V179.866H40V189H56ZM56 166.252V122.748H40V166.252H56ZM27.4167 144.5C27.4167 156.778 34.1095 167.484 44.0075 173.184L51.9925 159.319C46.8498 156.357 43.4167 150.825 43.4167 144.5H27.4167ZM44.0075 115.816C34.1095 121.516 27.4167 132.222 27.4167 144.5H43.4167C43.4167 138.175 46.8498 132.643 51.9925 129.681L44.0075 115.816Z" fill="white" mask="url(#path-3-outside-1_18_174)"/>
<circle cx="96" cy="133" r="12" fill="white"/>
<circle cx="181" cy="133" r="12" fill="white"/>
<path d="M109 163.532C109 160.326 112.15 158.068 115.187 159.097L135.932 166.129C137.597 166.694 139.403 166.694 141.068 166.129L161.813 159.097C164.85 158.068 168 160.326 168 163.532V163.532C168 165.593 166.654 167.411 164.683 168.012L140.834 175.288C139.313 175.752 137.687 175.752 136.166 175.288L112.317 168.012C110.346 167.411 109 165.593 109 163.532V163.532Z" fill="white"/>
<defs>
<linearGradient id="paint0_linear_18_174" x1="109.703" y1="160.633" x2="109.703" y2="326.472" gradientUnits="userSpaceOnUse">
<stop offset="0.15" stop-color="#5B7FFF"/>
<stop offset="1" stop-color="#F57EFF"/>
</linearGradient>
<linearGradient id="paint1_linear_18_174" x1="48" y1="144.5" x2="228" y2="144.5" gradientUnits="userSpaceOnUse">
<stop offset="0.15" stop-color="#5B7FFF"/>
<stop offset="1" stop-color="#F57EFF"/>
</linearGradient>
</defs>
</svg>
