<svg width="251" height="251" viewBox="0 0 251 251" fill="none" xmlns="http://www.w3.org/2000/svg">
<rect width="251" height="251" fill="white"/>
<rect x="60.6706" y="158.76" width="87.2843" height="173.838" rx="23" transform="rotate(-110 60.6706 158.76)" fill="url(#paint0_linear_17_173)" stroke="white" stroke-width="8"/>
<mask id="path-3-outside-1_17_173" maskUnits="userSpaceOnUse" x="8" y="66" width="221" height="143" fill="black">
<rect fill="white" x="8" y="66" width="221" height="143"/>
<path fill-rule="evenodd" clip-rule="evenodd" d="M41 182C41 192.493 49.5066 201 60 201H202C212.493 201 221 192.493 221 182V93C221 82.5066 212.493 74 202 74H60C49.5066 74 41 82.5066 41 93V102.134C26.4351 107.282 16 121.172 16 137.5C16 153.828 26.4351 167.718 41 172.866V182ZM41 115.748V159.252C33.4796 154.921 28.4167 146.802 28.4167 137.5C28.4167 128.198 33.4796 120.079 41 115.748Z"/>
</mask>
<path fill-rule="evenodd" clip-rule="evenodd" d="M41 182C41 192.493 49.5066 201 60 201H202C212.493 201 221 192.493 221 182V93C221 82.5066 212.493 74 202 74H60C49.5066 74 41 82.5066 41 93V102.134C26.4351 107.282 16 121.172 16 137.5C16 153.828 26.4351 167.718 41 172.866V182ZM41 115.748V159.252C33.4796 154.921 28.4167 146.802 28.4167 137.5C28.4167 128.198 33.4796 120.079 41 115.748Z" fill="url(#paint1_linear_17_173)"/>
<path d="M41 102.134L43.666 109.677L49 107.791V102.134H41ZM41 172.866H49V167.209L43.666 165.323L41 172.866ZM41 159.252L37.0075 166.184L49 173.091V159.252H41ZM41 115.748H49V101.909L37.0075 108.816L41 115.748ZM60 193C53.9249 193 49 188.075 49 182H33C33 196.912 45.0883 209 60 209V193ZM202 193H60V209H202V193ZM213 182C213 188.075 208.075 193 202 193V209C216.912 209 229 196.912 229 182H213ZM213 93V182H229V93H213ZM202 82C208.075 82 213 86.9249 213 93H229C229 78.0883 216.912 66 202 66V82ZM60 82H202V66H60V82ZM49 93C49 86.9249 53.9249 82 60 82V66C45.0883 66 33 78.0883 33 93H49ZM49 102.134V93H33V102.134H49ZM24 137.5C24 124.668 32.1975 113.73 43.666 109.677L38.334 94.5911C20.6727 100.833 8 117.677 8 137.5H24ZM43.666 165.323C32.1975 161.27 24 150.332 24 137.5H8C8 157.323 20.6727 174.167 38.334 180.409L43.666 165.323ZM49 182V172.866H33V182H49ZM49 159.252V115.748H33V159.252H49ZM20.4167 137.5C20.4167 149.778 27.1095 160.484 37.0075 166.184L44.9925 152.319C39.8498 149.357 36.4167 143.825 36.4167 137.5H20.4167ZM37.0075 108.816C27.1095 114.516 20.4167 125.222 20.4167 137.5H36.4167C36.4167 131.175 39.8498 125.643 44.9925 122.681L37.0075 108.816Z" fill="white" mask="url(#path-3-outside-1_17_173)"/>
<circle cx="89" cy="126" r="12" fill="white"/>
<circle cx="174" cy="126" r="12" fill="white"/>
<path d="M102 156.532C102 153.326 105.15 151.068 108.187 152.097L128.932 159.129C130.597 159.694 132.403 159.694 134.068 159.129L154.813 152.097C157.85 151.068 161 153.326 161 156.532V156.532C161 158.593 159.654 160.411 157.683 161.012L133.834 168.288C132.313 168.752 130.687 168.752 129.166 168.288L105.317 161.012C103.346 160.411 102 158.593 102 156.532V156.532Z" fill="white"/>
<defs>
<linearGradient id="paint0_linear_17_173" x1="102.703" y1="153.633" x2="102.703" y2="319.472" gradientUnits="userSpaceOnUse">
<stop offset="0.15" stop-color="#5B7FFF"/>
<stop offset="1" stop-color="#F57EFF"/>
</linearGradient>
<linearGradient id="paint1_linear_17_173" x1="41" y1="137.5" x2="221" y2="137.5" gradientUnits="userSpaceOnUse">
<stop offset="0.15" stop-color="#5B7FFF"/>
<stop offset="1" stop-color="#F57EFF"/>
</linearGradient>
</defs>
</svg>
